<svg width="105" height="99" viewBox="0 0 105 99" fill="none" xmlns="http://www.w3.org/2000/svg">
<path d="M99.5797 20.2609C99.5003 20.0813 99.3659 19.9277 99.1935 19.8195C99.0211 19.7113 98.8183 19.6533 98.6108 19.6527H83.9241C83.6459 19.6527 83.3791 19.7562 83.1823 19.9405C82.9856 20.1248 82.8751 20.3747 82.8751 20.6353C82.8751 20.8959 82.9856 21.1458 83.1823 21.3301C83.3791 21.5144 83.6459 21.6179 83.9241 21.6179V21.6179H96.0781L61.9698 53.5659C61.5635 53.9465 61.0781 54.2449 60.5437 54.4425C60.0092 54.6402 59.4371 54.733 58.8628 54.7151C58.2885 54.6972 57.7243 54.5691 57.205 54.3386C56.6858 54.1081 56.2226 53.7801 55.8442 53.3751L48.542 45.5576C47.9744 44.95 47.2797 44.4581 46.5008 44.1123C45.7219 43.7666 44.8756 43.5743 44.0141 43.5475C43.1527 43.5207 42.2946 43.6599 41.4929 43.9564C40.6913 44.2529 39.9632 44.7005 39.3537 45.2714L5.55286 76.9315C5.35612 77.1158 5.2456 77.3657 5.24561 77.6264C5.24561 77.887 5.35615 78.1369 5.55289 78.3212C5.74964 78.5055 6.01648 78.609 6.29472 78.609C6.57295 78.609 6.83979 78.5054 7.03653 78.3212L40.8375 46.661C41.2438 46.2803 41.7292 45.9819 42.2636 45.7842C42.7981 45.5865 43.3702 45.4937 43.9445 45.5116C44.5188 45.5294 45.0831 45.6576 45.6023 45.8882C46.1216 46.1187 46.5847 46.4466 46.9631 46.8517L54.2653 54.6693C54.8329 55.2768 55.5277 55.7687 56.3065 56.1144C57.0854 56.4602 57.9317 56.6524 58.7931 56.6792C59.6546 56.7061 60.5127 56.5669 61.3143 56.2704C62.116 55.9739 62.8441 55.5263 63.4535 54.9555L97.5617 23.0076L97.5617 34.3918C97.5617 34.6524 97.6722 34.9023 97.869 35.0866C98.0657 35.2709 98.3326 35.3744 98.6108 35.3744C98.889 35.3744 99.1558 35.2709 99.3526 35.0866C99.5493 34.9023 99.6598 34.6524 99.6598 34.3918L99.6598 20.6356C99.6595 20.507 99.6323 20.3797 99.5797 20.2609Z" fill="#1EDA00"/>
</svg>
