<svg width="23" height="23" viewBox="0 0 23 23" fill="none" xmlns="http://www.w3.org/2000/svg">
<path d="M11.5 0C5.14933 0 0 5.14933 0 11.5C0 17.8507 5.14933 23 11.5 23C17.8507 23 23 17.8507 23 11.5C23 5.14933 17.8507 0 11.5 0ZM16.0307 15.0347L15.2965 16.0358C15.2806 16.0576 15.2605 16.0761 15.2373 16.0901C15.2142 16.1041 15.1886 16.1133 15.1619 16.1174C15.1351 16.1215 15.1079 16.1202 15.0817 16.1137C15.0554 16.1072 15.0308 16.0955 15.009 16.0795L10.7633 12.9837C10.7368 12.9647 10.7153 12.9396 10.7006 12.9106C10.6858 12.8816 10.6783 12.8494 10.6786 12.8169V5.75C10.6786 5.63705 10.771 5.54464 10.8839 5.54464H12.1186C12.2316 5.54464 12.324 5.63705 12.324 5.75V12.1032L15.9845 14.7498C16.0769 14.814 16.0974 14.9423 16.0307 15.0347Z" fill="#FF6700"/>
</svg>
