<svg width="12" height="12" viewBox="0 0 12 12" fill="none" xmlns="http://www.w3.org/2000/svg">
<path d="M6 9.33333C6.18889 9.33333 6.34733 9.26933 6.47533 9.14133C6.60289 9.01378 6.66667 8.85556 6.66667 8.66667V6.66667H8.66667C8.85556 6.66667 9.01378 6.60267 9.14133 6.47467C9.26933 6.34711 9.33333 6.18889 9.33333 6C9.33333 5.81111 9.26933 5.65267 9.14133 5.52467C9.01378 5.39711 8.85556 5.33333 8.66667 5.33333H6.66667V3.33333C6.66667 3.14444 6.60289 2.986 6.47533 2.858C6.34733 2.73044 6.18889 2.66667 6 2.66667C5.81111 2.66667 5.65289 2.73044 5.52533 2.858C5.39733 2.986 5.33333 3.14444 5.33333 3.33333V5.33333H3.33333C3.14444 5.33333 2.986 5.39711 2.858 5.52467C2.73044 5.65267 2.66667 5.81111 2.66667 6C2.66667 6.18889 2.73044 6.34711 2.858 6.47467C2.986 6.60267 3.14444 6.66667 3.33333 6.66667H5.33333V8.66667C5.33333 8.85556 5.39733 9.01378 5.52533 9.14133C5.65289 9.26933 5.81111 9.33333 6 9.33333ZM1.33333 12C0.966667 12 0.652667 11.8696 0.391333 11.6087C0.130444 11.3473 0 11.0333 0 10.6667V1.33333C0 0.966667 0.130444 0.652667 0.391333 0.391333C0.652667 0.130444 0.966667 0 1.33333 0H10.6667C11.0333 0 11.3473 0.130444 11.6087 0.391333C11.8696 0.652667 12 0.966667 12 1.33333V10.6667C12 11.0333 11.8696 11.3473 11.6087 11.6087C11.3473 11.8696 11.0333 12 10.6667 12H1.33333Z" fill="white"/>
</svg>
