<svg width="18" height="18" viewBox="0 0 18 18" fill="none" xmlns="http://www.w3.org/2000/svg">
<path d="M1.875 3.75C2.91052 3.75 3.75 2.91052 3.75 1.875C3.75 0.839466 2.91052 0 1.875 0C0.839466 0 0 0.839466 0 1.875C0 2.91052 0.839466 3.75 1.875 3.75Z" fill="#111111"/>
<path d="M9 3.75C10.2426 3.75 11.25 2.91052 11.25 1.875C11.25 0.839466 10.2426 0 9 0C7.75738 0 6.75 0.839466 6.75 1.875C6.75 2.91052 7.75738 3.75 9 3.75Z" fill="#111111"/>
<path d="M16.125 3.75C17.1605 3.75 18 2.91052 18 1.875C18 0.839466 17.1605 0 16.125 0C15.0895 0 14.25 0.839466 14.25 1.875C14.25 2.91052 15.0895 3.75 16.125 3.75Z" fill="#111111"/>
<path d="M1.875 11.25C2.91052 11.25 3.75 10.2426 3.75 9C3.75 7.75738 2.91052 6.75 1.875 6.75C0.839466 6.75 0 7.75738 0 9C0 10.2426 0.839466 11.25 1.875 11.25Z" fill="#111111"/>
<path d="M9 11.25C10.2426 11.25 11.25 10.2426 11.25 9C11.25 7.75738 10.2426 6.75 9 6.75C7.75738 6.75 6.75 7.75738 6.75 9C6.75 10.2426 7.75738 11.25 9 11.25Z" fill="#111111"/>
<path d="M16.125 11.25C17.1605 11.25 18 10.2426 18 9C18 7.75738 17.1605 6.75 16.125 6.75C15.0895 6.75 14.25 7.75738 14.25 9C14.25 10.2426 15.0895 11.25 16.125 11.25Z" fill="#111111"/>
<path d="M1.875 18C2.91052 18 3.75 17.1605 3.75 16.125C3.75 15.0895 2.91052 14.25 1.875 14.25C0.839466 14.25 0 15.0895 0 16.125C0 17.1605 0.839466 18 1.875 18Z" fill="#111111"/>
<path d="M9 18C10.2426 18 11.25 17.1605 11.25 16.125C11.25 15.0895 10.2426 14.25 9 14.25C7.75738 14.25 6.75 15.0895 6.75 16.125C6.75 17.1605 7.75738 18 9 18Z" fill="#111111"/>
<path d="M16.125 18C17.1605 18 18 17.1605 18 16.125C18 15.0895 17.1605 14.25 16.125 14.25C15.0895 14.25 14.25 15.0895 14.25 16.125C14.25 17.1605 15.0895 18 16.125 18Z" fill="#111111"/>
</svg>
