<svg width="18" height="18" viewBox="0 0 18 18" fill="none" xmlns="http://www.w3.org/2000/svg">
<path d="M9 0C4.16797 0 0.25 3.91797 0.25 8.75C0.25 13.582 4.16797 17.5 9 17.5C13.832 17.5 17.75 13.582 17.75 8.75C17.75 3.91797 13.832 0 9 0ZM9.78906 12.7617C9.76953 13.457 9.25391 13.8867 8.58594 13.8672C7.94531 13.8477 7.44141 13.3906 7.46094 12.6914C7.48047 11.9961 8.01172 11.5547 8.65234 11.5742C9.32422 11.5938 9.8125 12.0664 9.78906 12.7617ZM11.6914 7.78906C11.5273 8.01953 11.1602 8.31641 10.6992 8.67578L10.1875 9.02734C9.9375 9.21875 9.78125 9.44531 9.69922 9.70312C9.65625 9.83984 9.625 10.1953 9.61719 10.4336C9.61328 10.4805 9.58594 10.5859 9.44141 10.5859C9.29687 10.5859 8.07422 10.5859 7.91406 10.5859C7.75391 10.5859 7.73438 10.4922 7.73828 10.4453C7.76172 9.79688 7.85547 9.26172 8.125 8.83203C8.48828 8.25391 9.51172 7.64453 9.51172 7.64453C9.66797 7.52734 9.78906 7.40234 9.88281 7.26562C10.0547 7.03125 10.1953 6.76953 10.1953 6.48828C10.1953 6.16406 10.1172 5.85547 9.91016 5.59766C9.66797 5.29688 9.40625 5.15234 8.90234 5.15234C8.40625 5.15234 8.11719 5.40234 7.91016 5.73047C7.70312 6.05859 7.73828 6.44531 7.73828 6.79688H5.83594C5.83594 5.46875 6.18359 4.62109 6.91797 4.12109C7.41406 3.78125 8.04688 3.63281 8.78516 3.63281C9.75391 3.63281 10.5234 3.8125 11.2031 4.32812C11.832 4.80469 12.1641 5.47656 12.1641 6.38281C12.1641 6.94141 11.9688 7.41016 11.6914 7.78906Z" fill="white"/>
</svg>
