<svg width="81" height="82" viewBox="0 0 81 82" fill="none" xmlns="http://www.w3.org/2000/svg">
<g clip-path="url(#clip0_329_25)">
<rect x="0.47998" y="0.799988" width="80.0503" height="80.96" rx="9.2" fill="#FF6700" fill-opacity="0.6"/>
<line x1="0.567375" y1="-0.0241443" x2="276.512" y2="165.811" stroke="black" stroke-width="0.339323"/>
<line x1="276.512" y1="0.945163" x2="3.28229" y2="166.195" stroke="black" stroke-width="0.339323"/>
<path d="M40.7162 18.28C30.7953 18.28 22.5601 28.4745 22.5601 41.2783C22.5601 46.6595 24.0163 51.5801 26.4391 55.4769C30.4981 57.2144 35.6731 58.1416 40.8604 58.1464C45.8653 58.1509 50.8638 57.298 54.8665 55.6755C57.3637 51.7477 58.8692 46.7513 58.8692 41.2781C58.8692 28.4743 50.6369 18.2802 40.7164 18.28H40.7162ZM40.8848 20.0858C48.6608 20.0858 54.9478 26.3696 54.9478 34.1459C54.9478 41.922 48.6608 48.2089 40.8848 48.2089C33.1082 48.2089 26.8246 41.922 26.8246 34.1459C26.8246 26.3694 33.1082 20.0858 40.8848 20.0858ZM38.2108 23.9504C37.9611 24.508 37.7193 25.0408 37.4847 25.5768C37.4322 25.6969 37.3695 25.7254 37.2315 25.7348C36.7065 25.7712 36.1813 25.8243 35.6622 25.9087C35.4913 25.9367 35.4025 25.9289 35.3027 25.7837C34.9807 25.3138 34.6439 24.8541 34.3031 24.3772L32.1461 25.9547C32.5109 26.4669 32.8508 26.9553 33.2046 27.4336C33.2989 27.5609 33.2863 27.6442 33.2145 27.7781C33.0458 28.0927 32.8989 28.42 32.7606 28.7494C32.68 28.9409 32.6907 29.2223 32.5553 29.3256C32.4047 29.4405 32.1348 29.4003 31.9165 29.4255C31.4581 29.4784 30.9991 29.5298 30.5218 29.5839L30.7851 32.242C31.455 32.1667 32.0859 32.0904 32.7181 32.03C32.8305 32.0194 33.0001 32.0354 33.0564 32.1073C33.3714 32.509 33.6597 32.9315 33.9836 33.3839L33.0685 35.4369L35.4881 36.52C35.7833 35.8622 36.071 35.2332 36.3466 34.5989C36.4102 34.4523 36.4805 34.4024 36.6501 34.3996C37.0395 34.3932 37.4333 34.3723 37.815 34.3011C38.0364 34.2599 38.1491 34.2993 38.2744 34.4792C38.6605 35.0334 39.0662 35.5739 39.4705 36.1281L41.0236 34.9962L41.5583 35.9221L39.6283 37.8544L37.2694 36.4991L36.0107 38.7892C36.8109 39.2551 37.5832 39.7047 38.2865 40.1143C38.0786 40.9916 37.8857 41.8218 37.679 42.6486C37.664 42.7081 37.5487 42.7809 37.479 42.7822C36.8429 42.7923 36.2062 42.7882 35.5698 42.7882H34.9339V45.3409C34.9986 45.3716 35.0638 45.4015 35.129 45.4312H37.6481C37.7206 45.7377 37.7908 46.0305 37.8589 46.3199C38.7349 46.5006 39.627 46.5915 40.5215 46.591C42.0575 46.591 43.5284 46.3276 44.8898 45.8453C44.0918 44.5542 44.2848 42.9009 45.1909 41.8693C46.4737 40.4083 48.7214 40.3073 50.0959 41.6731C50.2062 41.7829 50.3098 41.8993 50.4059 42.0217C52.1961 39.8825 53.2683 37.1504 53.2683 34.1737C53.2682 33.5862 53.2258 32.9995 53.1414 32.4181C53.1186 32.4065 53.1002 32.3969 53.0752 32.3843C53.0624 32.3778 53.0452 32.3798 53.0111 32.3756C52.5681 33.1443 52.1217 33.9194 51.7016 34.6488L49.0429 33.9182V31.2906H46.4047V33.9211C45.5334 34.1567 44.6959 34.3834 43.8317 34.617C43.4124 33.8879 42.9725 33.1229 42.5309 32.3548L40.7703 33.3431C40.6438 33.1669 40.5362 33.004 40.4145 32.8519C40.3348 32.7524 40.3519 32.6853 40.4118 32.5757C40.6221 32.1914 40.8325 31.804 40.997 31.3991C41.0747 31.2071 41.1605 31.1449 41.3572 31.1277C41.9803 31.0739 42.6014 30.9964 43.2514 30.9247C43.1626 30.0247 43.0757 29.1482 42.9888 28.267C42.3326 28.33 41.7237 28.3848 41.1158 28.4495C40.9719 28.4647 40.913 28.4121 40.8369 28.2892C40.5677 27.8552 40.2878 27.4255 39.9784 27.0199C39.8664 26.8734 39.8407 26.7824 39.9176 26.6194C40.1626 26.0992 40.3907 25.5712 40.6315 25.032C39.8155 24.6676 39.0224 24.3131 38.2107 23.9505L38.2108 23.9504ZM36.9115 28.0878C38.1027 28.0976 39.0548 29.0605 39.0449 30.2448C39.0347 31.4454 38.0664 32.3924 36.863 32.3782C35.663 32.3642 34.7339 31.401 34.7474 30.1842C34.7603 29.0171 35.7298 28.0777 36.9114 28.0878H36.9115ZM32.5484 48.8139C34.317 48.8139 35.7414 50.2431 35.7414 52.0402C35.7414 53.8371 34.3171 55.2691 32.5485 55.2691C30.7799 55.2691 29.3584 53.837 29.3584 52.0402C29.3584 50.2431 30.7798 48.8139 32.5484 48.8139ZM48.5141 48.8846C49.3593 48.8846 50.1699 49.2203 50.7675 49.818C51.3651 50.4156 51.7008 51.2261 51.7008 52.0713C51.7008 52.9165 51.3651 53.727 50.7675 54.3247C50.1699 54.9223 49.3593 55.258 48.5141 55.258C47.669 55.258 46.8584 54.9223 46.2608 54.3247C45.6632 53.727 45.3274 52.9165 45.3274 52.0713C45.3274 51.2261 45.6632 50.4156 46.2608 49.818C46.8584 49.2203 47.669 48.8846 48.5141 48.8846ZM28.3923 58.1552V58.1558C28.3926 58.1558 28.3928 58.1558 28.3931 58.156L28.3923 58.1552ZM28.3931 58.156C29.5021 59.4541 30.7387 60.5773 32.0731 61.4958L31.3897 58.9559C30.3794 58.7342 29.3795 58.4673 28.3931 58.156ZM52.9104 58.3028C52.0399 58.5639 51.1595 58.7909 50.2713 58.9832L49.6513 61.2914C50.8236 60.4491 51.9168 59.4451 52.9104 58.3033V58.303V58.3028ZM33.3582 59.3379L34.2818 62.784C35.374 63.3104 36.5145 63.7062 37.6916 63.9578L37.2041 59.8049C35.9156 59.7084 34.6322 59.5525 33.3581 59.3377L33.3582 59.3379ZM48.306 59.3622C47.3177 59.5241 46.3241 59.6517 45.3269 59.7446L44.8632 63.6751C45.743 63.4124 46.5976 63.0675 47.4244 62.6486L48.3063 59.3626V59.3624L48.3061 59.3622H48.306ZM43.4999 59.8737L43.4994 59.8766H43.5L43.4999 59.8737ZM43.4994 59.8766C42.6226 59.9251 41.7413 59.9493 40.8608 59.9493C40.2487 59.9491 39.6366 59.937 39.0249 59.9129L39.5364 64.2314C39.9265 64.2678 40.3198 64.28 40.7161 64.28C41.4889 64.28 42.2505 64.2195 43.0001 64.096L43.4993 59.8768L43.4994 59.8766Z" fill="white"/>
</g>
<defs>
<clipPath id="clip0_329_25">
<rect x="0.47998" y="0.799988" width="80.0503" height="80.96" rx="9.2" fill="white"/>
</clipPath>
</defs>
</svg>
