<svg width="81" height="82" viewBox="0 0 81 82" fill="none" xmlns="http://www.w3.org/2000/svg">
<g clip-path="url(#clip0_329_12)">
<rect x="0.47998" y="0.799988" width="80.0503" height="80.96" rx="9.2" fill="#FF6700" fill-opacity="0.6"/>
<line x1="0.567375" y1="-0.0241443" x2="276.512" y2="165.811" stroke="black" stroke-width="0.339323"/>
<line x1="276.512" y1="0.945163" x2="3.28229" y2="166.195" stroke="black" stroke-width="0.339323"/>
<g clip-path="url(#clip1_329_12)">
<path d="M37.05 29.7033C38.1085 29.7033 38.9666 28.8452 38.9666 27.7867C38.9666 26.7281 38.1085 25.87 37.05 25.87C35.9914 25.87 35.1333 26.7281 35.1333 27.7867C35.1333 28.8452 35.9914 29.7033 37.05 29.7033Z" fill="white"/>
<path d="M48.55 29.7033C49.6085 29.7033 50.4666 28.8452 50.4666 27.7867C50.4666 26.7281 49.6085 25.87 48.55 25.87C47.4914 25.87 46.6333 26.7281 46.6333 27.7867C46.6333 28.8452 47.4914 29.7033 48.55 29.7033Z" fill="white"/>
<path d="M40.8833 35.4533H44.7166V37.37H40.8833V35.4533ZM40.8833 27.7866H44.7166V29.7033H40.8833V27.7866ZM40.8833 39.2866H44.7166V41.2033H40.8833V39.2866Z" fill="white"/>
<path d="M60.05 43.12V37.37C54.2069 37.3688 48.5456 39.4018 44.0381 43.12H41.5618C37.0544 39.4018 31.3931 37.3688 25.55 37.37V43.12C25.0416 43.12 24.5541 43.3219 24.1947 43.6814C23.8352 44.0408 23.6333 44.5283 23.6333 45.0367V48.87C23.6333 49.3783 23.8352 49.8658 24.1947 50.2253C24.5541 50.5847 25.0416 50.7867 25.55 50.7867V58.4533C31.9556 58.4475 38.1232 60.8803 42.8 65.2575C47.4816 60.888 53.6461 58.4565 60.05 58.4533V50.7867C60.5583 50.7867 61.0458 50.5847 61.4053 50.2253C61.7647 49.8658 61.9666 49.3783 61.9666 48.87V45.0367C61.9666 44.5283 61.7647 44.0408 61.4053 43.6814C61.0458 43.3219 60.5583 43.12 60.05 43.12Z" fill="white"/>
<path d="M50.4666 35.4533H35.1333C33.6088 35.4518 32.1471 34.8455 31.0691 33.7675C29.9911 32.6895 29.3848 31.2279 29.3833 29.7033V25.87C29.3848 24.3455 29.9911 22.8838 31.0691 21.8058C32.1471 20.7278 33.6088 20.1215 35.1333 20.12H50.4666C51.9912 20.1215 53.4528 20.7278 54.5308 21.8058C55.6088 22.8838 56.2151 24.3455 56.2166 25.87V29.7033C56.2151 31.2279 55.6088 32.6895 54.5308 33.7675C53.4528 34.8455 51.9912 35.4518 50.4666 35.4533ZM35.1333 23.9533C34.6251 23.9538 34.1379 24.1559 33.7786 24.5153C33.4192 24.8746 33.2171 25.3618 33.2166 25.87V29.7033C33.2171 30.2115 33.4192 30.6987 33.7786 31.0581C34.1379 31.4174 34.6251 31.6195 35.1333 31.62H50.4666C50.9748 31.6195 51.462 31.4174 51.8214 31.0581C52.1807 30.6987 52.3828 30.2115 52.3833 29.7033V25.87C52.3828 25.3618 52.1807 24.8746 51.8214 24.5153C51.462 24.1559 50.9748 23.9538 50.4666 23.9533H35.1333Z" fill="white"/>
</g>
</g>
<defs>
<clipPath id="clip0_329_12">
<rect x="0.47998" y="0.799988" width="80.0503" height="80.96" rx="9.2" fill="white"/>
</clipPath>
<clipPath id="clip1_329_12">
<rect width="46" height="46" fill="white" transform="translate(19.8 20.12)"/>
</clipPath>
</defs>
</svg>
