<svg width="81" height="82" viewBox="0 0 81 82" fill="none" xmlns="http://www.w3.org/2000/svg">
<g clip-path="url(#clip0_327_170)">
<rect x="0.966553" y="0.898987" width="79.9338" height="80.8421" rx="9.1866" fill="#FF6700" fill-opacity="0.6"/>
<line x1="1.05382" y1="0.0760431" x2="276.596" y2="165.669" stroke="black" stroke-width="0.338829"/>
<line x1="276.596" y1="1.04395" x2="3.76476" y2="166.054" stroke="black" stroke-width="0.338829"/>
<path d="M26.0768 52.8033C25.0242 52.8033 24.1234 52.4288 23.3744 51.6798C22.6242 50.9296 22.2491 50.0282 22.2491 48.9755V27.9229C22.2491 26.8703 22.6242 25.9688 23.3744 25.2186C24.1234 24.4696 25.0242 24.0952 26.0768 24.0952H56.6988C57.7515 24.0952 58.6529 24.4696 59.4031 25.2186C60.1521 25.9688 60.5266 26.8703 60.5266 27.9229V48.9755C60.5266 50.0282 60.1521 50.9296 59.4031 51.6798C58.6529 52.4288 57.7515 52.8033 56.6988 52.8033H26.0768ZM22.2491 58.5449C21.7068 58.5449 21.2526 58.3612 20.8864 57.9937C20.5189 57.6275 20.3352 57.1733 20.3352 56.631C20.3352 56.0888 20.5189 55.6345 20.8864 55.2684C21.2526 54.9009 21.7068 54.7172 22.2491 54.7172H60.5266C61.0689 54.7172 61.5231 54.9009 61.8893 55.2684C62.2567 55.6345 62.4405 56.0888 62.4405 56.631C62.4405 57.1733 62.2567 57.6275 61.8893 57.9937C61.5231 58.3612 61.0689 58.5449 60.5266 58.5449H22.2491Z" fill="white"/>
</g>
<defs>
<clipPath id="clip0_327_170">
<rect x="0.966553" y="0.898987" width="79.9338" height="80.8421" rx="9.1866" fill="white"/>
</clipPath>
</defs>
</svg>
