<svg width="294" height="36" viewBox="0 0 294 36" fill="none" xmlns="http://www.w3.org/2000/svg">
<path d="M2.67628 29H5.69265V13.3415H5.92923L12.1837 29H14.6382L20.9075 13.3415H21.1293V29H24.1457V7.66366H20.3309L13.5293 24.6825H13.2927L6.4911 7.66366H2.67628V29ZM65.1363 29H68.3597V13.5042H68.5963L79.5528 29H82.5396V7.66366H79.3162V23.1891H79.0944L68.1231 7.66366H65.1363V29ZM103.256 29.5175C108.845 29.5175 112.468 26.0132 112.468 20.6015V17.9548H103.714V20.6311H109.2V21.1042C109.17 24.3867 106.79 26.5899 103.3 26.5899C99.2934 26.5899 96.7797 23.4256 96.7797 18.3244V18.2949C96.7797 13.2676 99.2786 10.0738 103.226 10.0738C106.154 10.0738 108.195 11.4933 108.963 14.0217L109.008 14.1695H112.32L112.29 14.0217C111.521 9.89636 108.076 7.14615 103.226 7.14615C97.2529 7.14615 93.3937 11.5376 93.3937 18.3097V18.3392C93.3937 25.2 97.2085 29.5175 103.256 29.5175ZM132.489 29.5175C138.655 29.5175 142.44 25.1704 142.44 18.3392V18.3097C142.44 11.4637 138.626 7.14615 132.489 7.14615C126.368 7.14615 122.524 11.4489 122.524 18.3097V18.3392C122.524 25.1852 126.279 29.5175 132.489 29.5175ZM132.489 26.5899C128.379 26.5899 125.91 23.3369 125.91 18.3392V18.3097C125.91 13.2676 128.453 10.0738 132.489 10.0738C136.526 10.0738 139.054 13.2676 139.054 18.3097V18.3392C139.054 23.3369 136.541 26.5899 132.489 26.5899ZM175.15 29.5175C180.118 29.5175 183.297 26.9743 183.297 22.8933V22.8786C183.297 19.7143 181.463 17.9104 176.983 16.9493L174.662 16.4318C171.897 15.8404 170.773 14.8053 170.773 13.2232V13.2084C170.773 11.1975 172.621 10.0294 175.12 10.0294C177.708 10.0146 179.378 11.2863 179.659 13.031L179.689 13.2232H182.898L182.883 13.0162C182.646 9.70414 179.689 7.14615 175.164 7.14615C170.64 7.14615 167.446 9.68936 167.431 13.3711V13.3859C167.431 16.5353 169.294 18.5462 173.627 19.463L175.963 19.9657C178.787 20.5719 179.94 21.6365 179.94 23.2778V23.2926C179.94 25.2739 178.003 26.6342 175.283 26.6342C172.429 26.6342 170.374 25.3922 170.196 23.4552L170.181 23.2926H166.929L166.943 23.4848C167.239 27.0778 170.329 29.5175 175.15 29.5175ZM194.018 29H197.33V21.7105H202.328C206.512 21.7105 209.41 18.8567 209.41 14.6871V14.6575C209.41 10.473 206.512 7.66366 202.328 7.66366H194.018V29ZM201.5 10.4582C204.368 10.4582 206.039 12.0108 206.039 14.6723V14.7018C206.039 17.3781 204.368 18.9307 201.5 18.9307H197.33V10.4582H201.5ZM258.075 29.5175C262.836 29.5175 266.311 26.7969 266.932 22.7011V22.6124H263.649L263.62 22.6715C263.013 25.0817 260.899 26.5899 258.075 26.5899C254.23 26.5899 251.835 23.4109 251.835 18.354V18.3244C251.835 13.2528 254.23 10.0738 258.06 10.0738C260.869 10.0738 263.013 11.7742 263.634 14.3913V14.4357H266.917L266.932 14.3618C266.37 10.1182 262.762 7.14615 258.06 7.14615C252.131 7.14615 248.449 11.4341 248.449 18.3244V18.354C248.449 25.2295 252.146 29.5175 258.075 29.5175ZM277.653 29H291.197V26.1463H280.965V19.5073H290.65V16.7571H280.965V10.5174H291.197V7.66366H277.653V29Z" fill="#FF6700"/>
<path d="M36.1703 28.5996L42.8996 9.25281H44.5819L51.3113 28.5996" stroke="#FF6700" stroke-width="3.36466" stroke-linecap="round"/>
<path d="M222.068 28.5996L228.797 9.25281H230.479L237.209 28.5996" stroke="#FF6700" stroke-width="3.36466" stroke-linecap="round"/>
</svg>
